<svg width="971" height="576" viewBox="0 0 971 576" fill="none" xmlns="http://www.w3.org/2000/svg">
<g clip-path="url(#clip0)">
<path d="M157.905 310.057L245.935 538.672C260.762 577.176 315.238 577.176 330.064 538.672L418.095 310.057H157.905Z" fill="#F9ED80"/>
<path d="M248.056 310.057H157.905L245.935 538.672C260.762 577.176 315.238 577.176 330.064 538.672L333.075 530.853L248.056 310.057Z" fill="#F9D888"/>
<path d="M320.078 8.5181L296.423 10.338C259.877 13.1496 231.656 43.6239 231.656 80.2779V101.137H274.197C312.938 101.137 344.345 69.7303 344.345 30.9893C344.345 17.8611 333.168 7.51067 320.078 8.5181V8.5181Z" fill="#FFC8E5"/>
<path d="M288.001 80.2779C288.001 49.398 308.032 22.9061 336.195 13.6443C331.863 10.0484 326.179 8.04816 320.078 8.51807L296.423 10.338C259.877 13.1496 231.656 43.6238 231.656 80.2779V101.136H274.197C278.922 101.136 283.537 100.662 288.001 99.7707V80.2779Z" fill="#FFB3DD"/>
<path d="M340.887 70.1957L228.199 78.8637C204.715 80.6701 186.581 100.253 186.581 123.806V153.145H389.42V115.138C389.42 88.8817 367.067 68.182 340.887 70.1957V70.1957Z" fill="#E7886E"/>
<path d="M317.49 71.9953L228.199 78.8637C204.715 80.6701 186.581 100.253 186.581 123.806V153.145H276.732V116.851C276.732 93.5875 294.426 74.2097 317.49 71.9953V71.9953Z" fill="#E27858"/>
<path d="M141.506 232.027V183.617C141.506 160.065 159.64 140.482 183.124 138.675L385.963 123.072C412.142 121.059 434.495 141.758 434.495 168.015V232.027H141.506Z" fill="#FFC8E5"/>
<path d="M270.342 131.967L183.124 138.676C159.64 140.483 141.506 160.066 141.506 183.619V232.028H231.656V176.577C231.656 154.014 248.299 135.107 270.342 131.967V131.967Z" fill="#FFB3DD"/>
<path d="M118.968 310.909C118.968 292.238 134.103 277.102 152.775 277.102H423.226C441.898 277.102 457.033 292.238 457.033 310.909C457.033 329.58 441.898 344.715 423.226 344.715H152.775C134.103 344.715 118.968 329.58 118.968 310.909V310.909Z" fill="#F9D888"/>
<path d="M209.119 310.909C209.119 292.238 224.254 277.102 242.925 277.102H152.775C134.103 277.102 118.968 292.238 118.968 310.909C118.968 329.58 134.103 344.715 152.775 344.715H242.925C224.254 344.715 209.119 329.58 209.119 310.909Z" fill="#FCCB88"/>
<path d="M85.1618 254.565C85.1618 235.894 100.297 220.758 118.968 220.758H457.033C475.704 220.758 490.839 235.894 490.839 254.565C490.839 273.236 475.704 288.371 457.033 288.371H118.968C100.297 288.371 85.1618 273.236 85.1618 254.565V254.565Z" fill="#F9ED80"/>
<path d="M175.312 254.565C175.312 235.894 190.448 220.758 209.119 220.758H118.968C100.297 220.758 85.1618 235.894 85.1618 254.565C85.1618 273.236 100.297 288.371 118.968 288.371H209.119C190.448 288.371 175.312 273.236 175.312 254.565Z" fill="#F9D888"/>
<path d="M329.091 408.497C338.427 408.497 345.994 400.929 345.994 391.594C345.994 382.258 338.427 374.69 329.091 374.69C319.756 374.69 312.188 382.258 312.188 391.594C312.188 400.929 319.756 408.497 329.091 408.497Z" fill="#F9D888"/>
<path d="M245.49 431.035C254.825 431.035 262.393 423.467 262.393 414.131C262.393 404.796 254.825 397.228 245.49 397.228C236.155 397.228 228.587 404.796 228.587 414.131C228.587 423.467 236.155 431.035 245.49 431.035Z" fill="#FCCB88"/>
<path d="M288.001 509.131C294.224 509.131 299.269 504.086 299.269 497.862C299.269 491.638 294.224 486.593 288.001 486.593C281.777 486.593 276.732 491.638 276.732 497.862C276.732 504.086 281.777 509.131 288.001 509.131Z" fill="#FCCB88"/>
<path d="M499.291 254.565C499.291 231.263 480.334 212.307 457.033 212.307H442.947V168.015C442.947 153.153 436.693 138.837 425.788 128.741C417.989 121.52 408.223 116.85 397.872 115.184V115.137C397.872 100.276 391.617 85.9608 380.713 75.8628C371.366 67.2061 359.192 62.2072 346.57 61.672C350.662 52.036 352.795 41.6439 352.795 30.987C352.795 22.3832 349.174 14.095 342.862 8.24989C336.549 2.40363 328.007 -0.573594 319.429 0.0890125L295.775 1.90893C257.959 4.81966 228.144 33.9169 223.765 70.8809C197.888 74.7539 178.13 97.2927 178.13 123.806V130.777C152.528 134.888 133.054 157.295 133.054 183.619V212.307H118.968C95.6666 212.307 76.7102 231.263 76.7102 254.565C76.7102 275.87 92.5609 293.534 113.087 296.405C111.402 301.017 110.517 305.922 110.517 310.909C110.517 334.211 129.473 353.167 152.775 353.167H165.45L238.049 541.708C246.194 562.86 265.334 576.001 288.001 576.001C310.667 576.001 329.808 562.86 337.952 541.708L410.551 353.167H423.226C446.528 353.167 465.484 334.211 465.484 310.909C465.484 305.92 464.598 301.015 462.913 296.405C483.439 293.534 499.291 275.871 499.291 254.565V254.565ZM297.071 18.7648L320.725 16.9449C324.678 16.6373 328.465 17.9568 331.376 20.6546C334.288 23.3512 335.892 27.0215 335.892 30.9892C335.892 42.2885 332.845 53.2035 327.07 62.782L241.066 69.3979C245.897 42.0676 268.592 20.9555 297.071 18.7648ZM149.958 183.619C149.958 164.601 164.811 148.561 183.772 147.103L293.403 138.671C298.057 138.312 301.54 134.25 301.181 129.596C300.823 124.943 296.777 121.452 292.106 121.817L195.032 129.284V123.807C195.032 104.79 209.885 88.7498 228.847 87.2916L341.535 78.6237C351.826 77.8303 361.656 81.2572 369.227 88.2675C376.758 95.2418 380.921 104.723 380.964 114.981L325.813 119.224C321.159 119.582 317.676 123.645 318.035 128.299C318.393 132.952 322.444 136.446 327.11 136.078L386.612 131.5C396.901 130.71 406.733 134.134 414.304 141.144C421.874 148.155 426.044 157.698 426.044 168.016V212.308H149.958V183.619ZM423.226 336.264H345.994C341.326 336.264 337.543 340.048 337.543 344.715C337.543 349.383 341.326 353.167 345.994 353.167H392.439L322.178 535.634C315.517 552.934 300.155 559.097 288.001 559.097C275.846 559.097 260.484 552.933 253.823 535.634L183.562 353.167H312.188C316.857 353.167 320.64 349.383 320.64 344.715C320.64 340.048 316.857 336.264 312.188 336.264H152.775C138.795 336.264 127.42 324.89 127.42 310.909C127.42 305.867 128.942 300.972 131.718 296.823H444.282C447.058 300.972 448.581 305.864 448.581 310.909C448.581 324.89 437.206 336.264 423.226 336.264V336.264ZM457.033 279.92H118.968C104.988 279.92 93.6134 268.546 93.6134 254.565C93.6134 240.584 104.988 229.21 118.968 229.21H457.033C471.013 229.21 482.388 240.584 482.388 254.565C482.388 268.546 471.013 279.92 457.033 279.92Z" fill="black"/>
<path d="M217.628 160.498C212.959 160.498 209.176 164.282 209.176 168.95V182.473C209.176 187.14 212.959 190.924 217.628 190.924C222.297 190.924 226.08 187.14 226.08 182.473V168.95C226.08 164.282 222.297 160.498 217.628 160.498Z" fill="black"/>
<path d="M358.372 160.498C353.703 160.498 349.92 164.282 349.92 168.95V182.473C349.92 187.14 353.703 190.924 358.372 190.924C363.041 190.924 366.824 187.14 366.824 182.473V168.95C366.824 164.282 363.04 160.498 358.372 160.498Z" fill="black"/>
<path d="M312.105 175.698C308.585 172.632 303.247 172.998 300.181 176.517C297.106 180.046 292.666 182.07 287.999 182.07C283.333 182.07 278.893 180.046 275.818 176.517C272.752 172.998 267.412 172.632 263.894 175.698C260.375 178.764 260.008 184.102 263.074 187.622C269.36 194.837 278.445 198.974 287.998 198.974C297.553 198.974 306.637 194.837 312.923 187.622C315.992 184.103 315.624 178.765 312.105 175.698Z" fill="black"/>
</g>
<g filter="url(#filter0_i)">
<path d="M646.272 275.648C642.24 273.44 638.112 271.616 633.888 270.176C629.76 268.736 625.872 268.016 622.224 268.016C617.712 268.016 614.16 268.928 611.568 270.752C608.976 272.576 607.68 275.312 607.68 278.96C607.68 281.456 608.64 283.712 610.56 285.728C612.576 287.648 615.12 289.376 618.192 290.912C621.36 292.448 624.624 293.84 627.984 295.088C632.112 296.624 636.096 298.592 639.936 300.992C643.776 303.296 646.944 306.512 649.44 310.64C651.936 314.672 653.184 320.048 653.184 326.768C653.184 332.144 651.792 337.136 649.008 341.744C646.224 346.352 642.144 350.096 636.768 352.976C631.392 355.76 624.768 357.152 616.896 357.152C610.848 357.152 604.656 356.24 598.32 354.416C592.08 352.592 586.176 349.712 580.608 345.776L589.824 329.504C593.472 332.192 597.648 334.4 602.352 336.128C607.056 337.856 611.28 338.72 615.024 338.72C617.52 338.72 620.016 338.384 622.512 337.712C625.104 336.944 627.216 335.696 628.848 333.968C630.576 332.24 631.44 329.84 631.44 326.768C631.44 323.6 629.904 320.864 626.832 318.56C623.856 316.16 620.256 314.144 616.032 312.512C612.768 311.264 609.408 309.824 605.952 308.192C602.496 306.56 599.232 304.592 596.16 302.288C593.184 299.888 590.736 296.96 588.816 293.504C586.992 289.952 586.08 285.632 586.08 280.544C586.08 274.4 587.424 269.072 590.112 264.56C592.896 260.048 596.784 256.496 601.776 253.904C606.768 251.216 612.528 249.728 619.056 249.44C627.6 249.44 634.512 250.448 639.792 252.464C645.168 254.48 649.968 256.88 654.192 259.664L646.272 275.648ZM705.745 250.016C719.089 250.016 729.313 253.28 736.417 259.808C743.617 266.24 747.217 274.88 747.217 285.728C747.217 291.776 745.921 297.728 743.329 303.584C740.833 309.44 736.561 314.096 730.513 317.552L755.137 356H730.801L708.481 322.304H694.513V356H673.633V250.016H705.745ZM709.345 302.144C713.569 302.144 716.833 301.28 719.137 299.552C721.537 297.728 723.217 295.616 724.177 293.216C725.137 290.72 725.617 288.464 725.617 286.448C725.617 285.296 725.425 283.856 725.041 282.128C724.753 280.304 724.081 278.48 723.025 276.656C721.969 274.832 720.337 273.296 718.129 272.048C716.017 270.8 713.137 270.176 709.489 270.176H694.513V302.144H709.345ZM760.832 345.632C760.832 342.656 761.888 340.16 764 338.144C766.208 336.128 768.608 335.12 771.2 335.12C773.6 335.12 775.856 336.128 777.968 338.144C780.176 340.16 781.28 342.656 781.28 345.632C781.28 348.8 780.176 351.344 777.968 353.264C775.856 355.088 773.6 356 771.2 356C768.608 356 766.208 355.088 764 353.264C761.888 351.344 760.832 348.8 760.832 345.632Z" fill="#FCCB88"/>
</g>
<g filter="url(#filter1_i)">
<path d="M450.584 428.608C450.008 429.088 448.928 429.736 447.344 430.552C445.808 431.368 443.912 432.088 441.656 432.712C439.4 433.336 436.904 433.624 434.168 433.576C429.992 433.48 426.248 432.736 422.936 431.344C419.672 429.904 416.888 427.96 414.584 425.512C412.328 423.064 410.6 420.256 409.4 417.088C408.2 413.92 407.6 410.536 407.6 406.936C407.6 401.56 408.68 396.808 410.84 392.68C413 388.552 416 385.312 419.84 382.96C423.728 380.608 428.24 379.432 433.376 379.432C436.928 379.432 440.072 379.912 442.808 380.872C445.544 381.832 447.776 382.864 449.504 383.968L445.4 393.832C444.2 392.92 442.592 391.984 440.576 391.024C438.608 390.016 436.328 389.512 433.736 389.512C431.048 389.512 428.528 390.256 426.176 391.744C423.872 393.232 422 395.248 420.56 397.792C419.168 400.288 418.472 403.144 418.472 406.36C418.472 409.768 419.12 412.768 420.416 415.36C421.712 417.904 423.56 419.896 425.96 421.336C428.36 422.776 431.168 423.496 434.384 423.496C437.216 423.496 439.64 423.04 441.656 422.128C443.672 421.216 445.208 420.256 446.264 419.248L450.584 428.608ZM455.067 433L478.971 377.92H479.547L503.451 433H491.355L487.251 422.632H469.683L465.363 433H455.067ZM473.355 413.848H483.795L478.683 400.96L473.355 413.848ZM539.472 392.824C537.456 391.72 535.392 390.808 533.28 390.088C531.216 389.368 529.272 389.008 527.448 389.008C525.192 389.008 523.416 389.464 522.12 390.376C520.824 391.288 520.176 392.656 520.176 394.48C520.176 395.728 520.656 396.856 521.616 397.864C522.624 398.824 523.896 399.688 525.432 400.456C527.016 401.224 528.648 401.92 530.328 402.544C532.392 403.312 534.384 404.296 536.304 405.496C538.224 406.648 539.808 408.256 541.056 410.32C542.304 412.336 542.928 415.024 542.928 418.384C542.928 421.072 542.232 423.568 540.84 425.872C539.448 428.176 537.408 430.048 534.72 431.488C532.032 432.88 528.72 433.576 524.784 433.576C521.76 433.576 518.664 433.12 515.496 432.208C512.376 431.296 509.424 429.856 506.64 427.888L511.248 419.752C513.072 421.096 515.16 422.2 517.512 423.064C519.864 423.928 521.976 424.36 523.848 424.36C525.096 424.36 526.344 424.192 527.592 423.856C528.888 423.472 529.944 422.848 530.76 421.984C531.624 421.12 532.056 419.92 532.056 418.384C532.056 416.8 531.288 415.432 529.752 414.28C528.264 413.08 526.464 412.072 524.352 411.256C522.72 410.632 521.04 409.912 519.312 409.096C517.584 408.28 515.952 407.296 514.416 406.144C512.928 404.944 511.704 403.48 510.744 401.752C509.832 399.976 509.376 397.816 509.376 395.272C509.376 392.2 510.048 389.536 511.392 387.28C512.784 385.024 514.728 383.248 517.224 381.952C519.72 380.608 522.6 379.864 525.864 379.72C530.136 379.72 533.592 380.224 536.232 381.232C538.92 382.24 541.32 383.44 543.432 384.832L539.472 392.824ZM549.913 406.576C549.913 402.928 550.609 399.472 552.001 396.208C553.393 392.944 555.313 390.064 557.761 387.568C560.257 385.024 563.137 383.032 566.401 381.592C569.665 380.152 573.169 379.432 576.913 379.432C580.609 379.432 584.089 380.152 587.353 381.592C590.617 383.032 593.497 385.024 595.993 387.568C598.537 390.064 600.505 392.944 601.897 396.208C603.337 399.472 604.057 402.928 604.057 406.576C604.057 409.6 603.553 412.504 602.545 415.288C601.585 418.024 600.265 420.52 598.585 422.776H607.009V433H582.457C580.633 433.384 578.785 433.576 576.913 433.576C573.169 433.576 569.665 432.88 566.401 431.488C563.137 430.096 560.257 428.176 557.761 425.728C555.313 423.232 553.393 420.352 552.001 417.088C550.609 413.824 549.913 410.32 549.913 406.576ZM560.713 406.576C560.713 409.648 561.433 412.48 562.873 415.072C564.361 417.616 566.353 419.656 568.849 421.192C571.345 422.68 574.153 423.424 577.273 423.424C580.297 423.424 583.009 422.68 585.409 421.192C587.857 419.656 589.777 417.616 591.169 415.072C592.561 412.528 593.257 409.696 593.257 406.576C593.257 403.456 592.537 400.648 591.097 398.152C589.657 395.608 587.713 393.592 585.265 392.104C582.817 390.568 580.057 389.8 576.985 389.8C573.913 389.8 571.153 390.568 568.705 392.104C566.257 393.592 564.313 395.608 562.873 398.152C561.433 400.648 560.713 403.456 560.713 406.576ZM626.778 413.416C626.778 415.096 627.282 416.704 628.29 418.24C629.298 419.776 630.618 421.024 632.25 421.984C633.93 422.944 635.754 423.424 637.722 423.424C639.882 423.424 641.802 422.944 643.482 421.984C645.162 421.024 646.482 419.776 647.442 418.24C648.45 416.704 648.954 415.096 648.954 413.416V380.008H659.25V413.632C659.25 417.52 658.29 420.976 656.37 424C654.45 426.976 651.858 429.328 648.594 431.056C645.33 432.736 641.706 433.576 637.722 433.576C633.786 433.576 630.186 432.736 626.922 431.056C623.706 429.328 621.138 426.976 619.218 424C617.298 420.976 616.338 417.52 616.338 413.632V380.008H626.778V413.416ZM671.84 380.008H682.28V433H671.84V380.008ZM743.405 435.16L706.325 401.68L706.541 433H695.957V377.92H696.389L733.397 411.904L733.181 380.008H743.693V435.16H743.405ZM801.908 380.008V433H791.468V411.472H767.78V433H757.34V380.008H767.78V401.392H791.468V380.008H801.908ZM809.583 433L833.487 377.92H834.063L857.967 433H845.871L841.767 422.632H824.199L819.879 433H809.583ZM827.871 413.848H838.311L833.199 400.96L827.871 413.848ZM885.506 380.008H921.218V390.088H908.33V433H897.89V390.088H885.506V380.008ZM921.028 433L944.932 377.92H945.508L969.412 433H957.316L953.212 422.632H935.644L931.324 433H921.028ZM939.316 413.848H949.756L944.644 400.96L939.316 413.848Z" fill="#FCCB88"/>
</g>
<defs>
<filter id="filter0_i" x="580.608" y="249.44" width="200.672" height="111.712" filterUnits="userSpaceOnUse" color-interpolation-filters="sRGB">
<feFlood flood-opacity="0" result="BackgroundImageFix"/>
<feBlend mode="normal" in="SourceGraphic" in2="BackgroundImageFix" result="shape"/>
<feColorMatrix in="SourceAlpha" type="matrix" values="0 0 0 0 0 0 0 0 0 0 0 0 0 0 0 0 0 0 127 0" result="hardAlpha"/>
<feOffset dy="4"/>
<feGaussianBlur stdDeviation="2"/>
<feComposite in2="hardAlpha" operator="arithmetic" k2="-1" k3="1"/>
<feColorMatrix type="matrix" values="0 0 0 0 0 0 0 0 0 0 0 0 0 0 0 0 0 0 0.25 0"/>
<feBlend mode="normal" in2="shape" result="effect1_innerShadow"/>
</filter>
<filter id="filter1_i" x="407.6" y="377.92" width="561.812" height="61.24" filterUnits="userSpaceOnUse" color-interpolation-filters="sRGB">
<feFlood flood-opacity="0" result="BackgroundImageFix"/>
<feBlend mode="normal" in="SourceGraphic" in2="BackgroundImageFix" result="shape"/>
<feColorMatrix in="SourceAlpha" type="matrix" values="0 0 0 0 0 0 0 0 0 0 0 0 0 0 0 0 0 0 127 0" result="hardAlpha"/>
<feOffset dy="4"/>
<feGaussianBlur stdDeviation="2"/>
<feComposite in2="hardAlpha" operator="arithmetic" k2="-1" k3="1"/>
<feColorMatrix type="matrix" values="0 0 0 0 0 0 0 0 0 0 0 0 0 0 0 0 0 0 0.25 0"/>
<feBlend mode="normal" in2="shape" result="effect1_innerShadow"/>
</filter>
<clipPath id="clip0">
<rect width="576" height="576" fill="white"/>
</clipPath>
</defs>
</svg>
