<svg id="Filled" height="512" viewBox="0 0 512 512" width="512" xmlns="http://www.w3.org/2000/svg"><path d="m256 152-8 40-40 8-96-64 80-80z" fill="#c48669"/><path d="m248 408h48v48h-48z" fill="#86afcc"/><path d="m368 456h-192a32 32 0 0 0 -32 32h256a32 32 0 0 0 -32-32z" fill="#a3d4f7"/><circle cx="208" cy="248" fill="#ff9494" r="64"/><circle cx="336" cy="248" fill="#ffb632" r="64"/><circle cx="272" cy="136" fill="#f7cca9" r="64"/><path d="m144 264h256a0 0 0 0 1 0 0v80a64 64 0 0 1 -64 64h-128a64 64 0 0 1 -64-64v-80a0 0 0 0 1 0 0z" fill="#8fbad9"/><path d="m432 296c-26.669 0-26.669 32-53.338 32s-26.669-32-53.339-32-26.665 32-53.331 32-26.666-32-53.332-32-26.666 32-53.331 32-26.664-32-53.329-32v-16a16 16 0 0 1 16-16h288a16 16 0 0 1 16 16z" fill="#a3d4f7"/><path d="m224 24h16a32 32 0 0 1 32 32v16a0 0 0 0 1 0 0h-16a32 32 0 0 1 -32-32v-16a0 0 0 0 1 0 0z" fill="#cfdb8c"/><path d="m304 24h16a0 0 0 0 1 0 0v16a32 32 0 0 1 -32 32h-16a0 0 0 0 1 0 0v-16a32 32 0 0 1 32-32z" fill="#cfdb8c" transform="matrix(-1 0 0 -1 592 96)"/><path d="m333.99 120h-13.99a15.979 15.979 0 0 0 -16 16 16 16 0 1 1 -32 0 16 16 0 1 0 -32 0 16 16 0 1 1 -32 0 64.013 64.013 0 0 1 125.99-16z" fill="#eb423f"/><path d="m269.99 232h-13.99a15.979 15.979 0 0 0 -16 16 16 16 0 1 1 -32 0 16 16 0 1 0 -32 0 16 16 0 1 1 -32 0 64.013 64.013 0 0 1 125.99-16z" fill="#eb423f"/><path d="m274 232h13.99a15.979 15.979 0 0 1 16 16 16 16 0 1 0 32 0 16 16 0 1 1 32 0 16 16 0 1 0 32 0 64.013 64.013 0 0 0 -125.99-16z" fill="#c7312e"/><path d="m407.551 256a72.833 72.833 0 0 0 .449-8 72.081 72.081 0 0 0 -72-72c-1.429 0-2.845.054-4.254.136a71.913 71.913 0 0 0 -22.941-101.986 40.013 40.013 0 0 0 19.195-34.15v-16a8 8 0 0 0 -8-8h-16a39.964 39.964 0 0 0 -32 16.028 39.964 39.964 0 0 0 -32-16.028h-16a8 8 0 0 0 -8 8v16a40.013 40.013 0 0 0 19.2 34.15 72.458 72.458 0 0 0 -14.137 11.019l-22.4-33.607a8 8 0 0 0 -12.313-1.219l-80 80a8 8 0 0 0 1.219 12.313l64.5 43a72.026 72.026 0 0 0 -36.069 62.344 72.833 72.833 0 0 0 .449 8h-8.449a24.027 24.027 0 0 0 -24 24v16a8 8 0 0 0 8 8c9.141 0 13.536 4.741 20.519 13.122 1.109 1.33 2.261 2.711 3.481 4.095v22.783a72.081 72.081 0 0 0 72 72h32v32h-64a40.045 40.045 0 0 0 -40 40 8 8 0 0 0 8 8h256a8 8 0 0 0 8-8 40.045 40.045 0 0 0 -40-40h-64v-32h32a72.081 72.081 0 0 0 72-72v-22.788c1.219-1.382 2.369-2.762 3.477-4.09 6.984-8.381 11.38-13.122 20.523-13.122a8 8 0 0 0 8-8v-16a24.027 24.027 0 0 0 -24-24zm-71.551-64a56.063 56.063 0 0 1 56 56 8 8 0 0 1 -16 0 24 24 0 0 0 -48 0 8 8 0 0 1 -16 0 24.027 24.027 0 0 0 -24-24h-2.586a56.068 56.068 0 0 1 50.586-32zm25.376 64h-18.752a23.889 23.889 0 0 0 1.376-8 8 8 0 0 1 16 0 23.889 23.889 0 0 0 1.376 8zm-64 0h-16.789a56.8 56.8 0 0 1 -.587-8 56.14 56.14 0 0 1 .581-8h7.419a8.009 8.009 0 0 1 8 8 23.889 23.889 0 0 0 1.376 8zm30.043-128a55.989 55.989 0 0 1 -106.073 31.85 23.976 23.976 0 0 0 26.654-23.85 8 8 0 0 1 16 0 24 24 0 0 0 48 0 8.009 8.009 0 0 1 8-8zm-51.165 79.864a72.155 72.155 0 0 0 -4.254 7.215 72.155 72.155 0 0 0 -4.254-7.215c1.409.082 2.825.136 4.254.136s2.845-.054 4.254-.136zm-12.254 40.136a56.8 56.8 0 0 1 -.587 8h-16.789a23.889 23.889 0 0 0 1.376-8 8.009 8.009 0 0 1 8-8h7.419a56.14 56.14 0 0 1 .581 8zm16-192a24.027 24.027 0 0 1 24-24h8v8a24.027 24.027 0 0 1 -24 24h-8zm-48-16v-8h8a24.027 24.027 0 0 1 24 24v8h-8a24.027 24.027 0 0 1 -24-24zm40 40a56.068 56.068 0 0 1 50.586 32h-2.586a24.027 24.027 0 0 0 -24 24 8 8 0 0 1 -16 0 24 24 0 0 0 -48 0 8 8 0 0 1 -16 0 56.063 56.063 0 0 1 56-56zm-147.443 54.756 66.2-66.2 19.882 29.825a71.843 71.843 0 0 0 1.616 77.753c-1.409-.082-2.825-.136-4.254-.136a71.9 71.9 0 0 0 -18.112 2.31zm83.443 57.244a56.068 56.068 0 0 1 50.586 32h-2.586a24.027 24.027 0 0 0 -24 24 8 8 0 0 1 -16 0 24 24 0 0 0 -48 0 8 8 0 0 1 -16 0 56.063 56.063 0 0 1 56-56zm-6.624 64h-18.752a23.889 23.889 0 0 0 1.376-8 8 8 0 0 1 16 0 23.889 23.889 0 0 0 1.376 8zm166.624 208a24.042 24.042 0 0 1 22.629 16h-237.258a24.042 24.042 0 0 1 22.629-16zm-112-16v-32h32v32zm136-104a56.063 56.063 0 0 1 -56 56h-128a56.063 56.063 0 0 1 -56-56v-10.509a34.756 34.756 0 0 0 13.329 2.509c17.08 0 25.8-10.468 32.811-18.879 6.983-8.38 11.379-13.121 20.519-13.121s13.538 4.741 20.522 13.122c7.009 8.41 15.731 18.878 32.811 18.878s25.8-10.468 32.812-18.879c6.983-8.38 11.38-13.121 20.519-13.121s13.539 4.741 20.524 13.122c7.009 8.41 15.733 18.878 32.815 18.878a34.757 34.757 0 0 0 13.338-2.512zm32-64v8.842c-11.99 2.648-18.993 11.052-24.815 18.036-6.985 8.381-11.38 13.122-20.523 13.122s-13.54-4.742-20.524-13.122c-7.01-8.411-15.738-18.878-32.815-18.878s-25.8 10.468-32.81 18.878c-6.984 8.381-11.38 13.122-20.521 13.122s-13.537-4.741-20.52-13.121c-7.009-8.411-15.732-18.879-32.813-18.879s-25.8 10.468-32.81 18.879c-6.984 8.38-11.379 13.121-20.52 13.121s-13.535-4.741-20.518-13.121c-5.821-6.985-12.822-15.388-24.811-18.037v-8.842a8.009 8.009 0 0 1 8-8h288a8.009 8.009 0 0 1 8 8z"/></svg>